HIERARCHY
ROOT SpineBase
{
  OFFSET 0.000000 0.000000 0.000000
  CHANNELS 6 Xposition Yposition Zposition Zrotation Xrotation Yrotation
  JOINT SpineMid
  {
    OFFSET 0.000000 30.020336 0.000000
    CHANNELS 3 Zrotation Xrotation Yrotation
    JOINT SpineShoulder
    {
      OFFSET -0.184450 22.467196 -0.769528
      CHANNELS 3 Zrotation Xrotation Yrotation
      JOINT Neck
      {
        OFFSET -0.144868 7.499277 -0.571766
        CHANNELS 3 Zrotation Xrotation Yrotation
        JOINT Head
        {
          OFFSET -3.150554 14.397018 -0.673307
          CHANNELS 3 Zrotation Xrotation Yrotation
          End Site
          {
            OFFSET 0 0 0
          }
        }
      }
      JOINT ShoulderLeft
      {
        OFFSET -15.933523 -3.079261 7.601954
        CHANNELS 3 Zrotation Xrotation Yrotation
        JOINT ElbowLeft
        {
          OFFSET -2.495706 -24.907567 0.916106
          CHANNELS 3 Zrotation Xrotation Yrotation
          JOINT WristLeft
          {
            OFFSET 0.771939 -22.262832 -13.621369
            CHANNELS 3 Zrotation Xrotation Yrotation
            JOINT HandLeft
            {
              OFFSET 0.344476 -7.101808 -2.920840
              CHANNELS 3 Zrotation Xrotation Yrotation
              JOINT HandTipLeft
              {
                OFFSET -0.970567 -5.970770 -4.630197
                CHANNELS 3 Zrotation Xrotation Yrotation
                End Site
                {
                  OFFSET 0 0 0
                }
              }
              JOINT ThumbLeft
              {
                OFFSET 3.713507 -0.335034 -3.783899
                CHANNELS 3 Zrotation Xrotation Yrotation
                End Site
                {
                  OFFSET 0 0 0
                }
              }
            }
          }
        }
      }
      JOINT ShoulderRight
      {
        OFFSET 11.060532 -1.298905 -11.364390
        CHANNELS 3 Zrotation Xrotation Yrotation
        JOINT ElbowRight
        {
          OFFSET 3.985328 -22.078430 -5.266418
          CHANNELS 3 Zrotation Xrotation Yrotation
          JOINT WristRight
          {
            OFFSET -9.368658 -24.867574 -5.168315
            CHANNELS 3 Zrotation Xrotation Yrotation
            JOINT HandRight
            {
              OFFSET -3.326367 -5.713892 -0.111639
              CHANNELS 3 Zrotation Xrotation Yrotation
              JOINT HandTipRight
              {
                OFFSET -2.247269 -7.449059 -0.693631
                CHANNELS 3 Zrotation Xrotation Yrotation
                End Site
                {
                  OFFSET 0 0 0
                }
              }
              JOINT ThumbRight
              {
                OFFSET -2.971802 0.675815 -2.282297
                CHANNELS 3 Zrotation Xrotation Yrotation
                End Site
                {
                  OFFSET 0 0 0
                }
              }
            }
          }
        }
      }
    }
  }
  JOINT HipLeft
  {
    OFFSET -7.057312 0.784427 0.216248
    CHANNELS 3 Zrotation Xrotation Yrotation
    JOINT KneeLeft
    {
      OFFSET -6.602758 -23.141942 -14.000620
      CHANNELS 3 Zrotation Xrotation Yrotation
      JOINT AnkleLeft
      {
        OFFSET 1.171281 -26.034382 -17.684566
        CHANNELS 3 Zrotation Xrotation Yrotation
        JOINT FootLeft
        {
          OFFSET -7.116202 6.833130 -13.434588
          CHANNELS 3 Zrotation Xrotation Yrotation
          End Site
          {
            OFFSET 0 0 0
          }
        }
      }
    }
  }
  JOINT HipRight
  {
    OFFSET 5.494688 1.926422 -6.674710
    CHANNELS 3 Zrotation Xrotation Yrotation
    JOINT KneeRight
    {
      OFFSET -0.780180 -25.266300 -9.183092
      CHANNELS 3 Zrotation Xrotation Yrotation
      JOINT AnkleRight
      {
        OFFSET -8.835062 -20.855825 -22.301316
        CHANNELS 3 Zrotation Xrotation Yrotation
        JOINT FootRight
        {
          OFFSET -5.557909 5.190353 -14.834669
          CHANNELS 3 Zrotation Xrotation Yrotation
          End Site
          {
            OFFSET 0 0 0
          }
        }
      }
    }
  }
}
MOTION
Frames: 9
Frame Time: 0.033333
82.361730 69.691046 341.354969 -0.000000 0.000000 28.766470 -0.000000 0.000000 -28.766470 -0.000000 0.000000 0.000000 -0.000000 0.000000 0.000000 0.000000 0.000000 0.000000 -0.000000 0.000000 0.000000 -0.000000 0.000000 0.000000 -0.000000 0.000000 0.000000 -0.000000 0.000000 0.000000 0.000000 0.000000 0.000000 0.000000 0.000000 0.000000 -0.000000 0.000000 0.000000 -0.000000 0.000000 0.000000 -0.000000 0.000000 0.000000 -0.000000 0.000000 0.000000 0.000000 0.000000 0.000000 0.000000 0.000000 0.000000 -0.000000 0.000000 -28.766470 -0.000000 0.000000 0.000000 -0.000000 0.000000 0.000000 0.000000 0.000000 0.000000 -0.000000 0.000000 -28.766470 -0.000000 0.000000 0.000000 -0.000000 0.000000 0.000000 0.000000 0.000000 0.000000
82.344467 69.694790 341.318562 0.005389 -0.007813 28.766971 -0.000964 0.009442 -28.766971 -0.000000 0.000000 0.000000 -0.000000 0.000000 0.000000 0.000000 0.000000 0.000000 -0.000000 0.000000 0.000000 -0.000000 0.000000 0.000000 -0.000000 0.000000 0.000000 0.447911 -0.738419 -0.225698 0.000000 0.000000 0.000000 0.000000 0.000000 0.000000 -0.000000 0.000000 0.000000 -0.000000 0.000000 0.000000 -0.000000 0.000000 0.000000 -0.000000 0.000000 0.000000 0.000000 0.000000 0.000000 0.000000 0.000000 0.000000 -0.000964 0.009442 -28.766971 0.229731 2.190545 -0.061080 0.825804 -2.686748 1.619517 0.000000 0.000000 0.000000 -0.000964 0.009442 -28.766971 -0.000000 0.000000 0.000000 0.216468 0.199105 0.833963 0.000000 0.000000 0.000000
82.330516 69.697476 341.287705 0.013590 -0.016408 28.761233 -0.004019 0.020922 -28.761230 -0.000000 0.000000 0.000000 -0.000000 0.000000 0.000000 0.000000 0.000000 0.000000 -0.000000 0.000000 0.000000 -0.000000 0.000000 0.000000 -0.000000 0.000000 0.000000 0.797309 -1.333627 -0.396253 0.000000 0.000000 0.000000 0.000000 0.000000 0.000000 -0.000000 0.000000 0.000000 -0.000000 0.000000 0.000000 1.106666 -0.289261 0.150419 -1.958593 -0.696365 0.229682 0.000000 0.000000 0.000000 0.000000 0.000000 0.000000 -0.004019 0.020922 -28.761230 0.414961 3.899416 -0.117757 1.492335 -4.751474 2.974070 0.000000 0.000000 0.000000 -0.004019 0.020922 -28.761230 -0.000000 0.000000 0.000000 0.399432 0.324860 1.494811 0.000000 0.000000 0.000000
82.319875 69.699102 341.262400 0.024604 -0.025784 28.749237 -0.009169 0.034440 -28.749229 -0.000000 0.000000 0.000000 -0.000000 0.000000 0.000000 0.000000 0.000000 0.000000 -0.000000 0.000000 0.000000 -0.000000 0.000000 0.000000 -0.760135 -0.285014 0.297318 1.800938 -1.508029 -0.820360 0.000000 0.000000 0.000000 0.000000 0.000000 0.000000 -0.000000 0.000000 0.000000 0.017705 -0.918641 0.343151 1.535407 0.535941 -0.174052 -2.706881 -0.968613 0.324585 0.000000 0.000000 0.000000 0.000000 0.000000 0.000000 -0.009169 0.034440 -28.749229 0.554111 5.122580 -0.165503 1.984976 -6.202479 4.013974 0.000000 0.000000 0.000000 0.754931 -0.310094 -29.053131 -0.167122 0.009384 -0.442701 -0.121825 0.298444 2.731090 0.000000 0.000000 0.000000
82.312545 69.699670 341.242644 0.038429 -0.035942 28.730968 -0.016420 0.049990 -28.730949 -0.000000 0.000000 0.000000 -0.000000 0.000000 0.000000 0.000000 0.000000 0.000000 -0.000000 0.000000 0.000000 -0.000000 0.000000 0.000000 -0.883106 -0.387276 0.342045 2.075257 -1.711751 -0.936952 0.000000 0.000000 0.000000 0.000000 0.000000 0.000000 -0.000000 0.000000 0.000000 0.074267 -1.150747 0.419837 1.835244 0.724311 -0.244593 -3.281850 -1.190692 0.406409 0.000000 0.000000 0.000000 0.000000 0.000000 0.000000 -0.016420 0.049990 -28.730949 0.646004 5.860011 -0.200976 2.291549 -7.050647 4.703546 0.000000 0.000000 0.000000 0.843230 -0.423058 -29.084825 -0.242126 0.189115 -0.517040 -0.071482 0.160452 3.170653 0.000000 0.000000 0.000000
82.308527 69.699179 341.228439 0.055064 -0.046879 28.706407 -0.025779 0.067565 -28.706370 -0.000000 0.000000 0.000000 -0.000000 0.000000 0.000000 0.000000 0.000000 0.000000 -0.000000 0.000000 0.000000 -0.000000 0.000000 0.000000 -0.937736 -0.492074 0.358561 2.184956 -1.762420 -0.974863 0.000000 0.000000 0.000000 0.000000 0.000000 0.000000 -0.000000 0.000000 0.000000 0.156184 -1.346831 0.478218 2.012612 0.923834 -0.321416 -3.673732 -1.362937 0.475239 0.000000 0.000000 0.000000 0.000000 0.000000 0.000000 -0.025779 0.067565 -28.706370 0.689877 6.113009 -0.222062 2.404078 -7.305041 5.021242 0.000000 0.000000 0.000000 0.850000 -0.540548 -29.084867 -0.326832 0.457739 -0.554579 0.026873 -0.098265 3.375337 0.000000 0.000000 0.000000
82.298490 69.702809 341.214829 0.058117 -0.048931 28.729568 -0.027442 0.070843 -28.729527 -0.000000 0.000000 0.000000 -0.000000 0.000000 0.000000 0.000000 0.000000 0.000000 -0.000000 0.000000 0.000000 -0.000000 0.000000 0.000000 -1.065018 -0.729481 0.397087 2.525511 -1.459459 -1.202533 0.000000 0.000000 0.000000 0.000000 0.000000 0.000000 -0.000000 0.000000 0.000000 0.297666 -1.680821 0.578106 0.646398 2.308731 -0.991022 -1.347084 -3.296226 1.212161 0.000000 0.000000 0.000000 0.000000 0.000000 0.000000 -0.027442 0.070843 -28.729527 0.608060 5.772609 -0.177648 2.245404 -6.784961 4.713139 0.000000 0.000000 0.000000 0.763192 -0.756459 -29.111183 0.107705 0.525642 -0.984728 -0.191280 0.260306 4.749951 0.000000 0.000000 0.000000
82.267225 69.702901 341.212316 0.023496 -0.047884 28.739059 0.002422 0.053283 -28.739050 -0.000000 0.000000 0.000000 -0.456039 0.712322 0.137549 0.000000 0.000000 0.000000 -0.000000 0.000000 0.000000 0.495401 0.864736 -0.275550 -1.328507 -1.898260 0.545414 1.875804 -0.763261 -0.830303 0.000000 0.000000 0.000000 0.000000 0.000000 0.000000 -0.000000 0.000000 0.000000 0.545019 -1.874572 0.605072 2.014394 0.967244 -0.178826 -4.210221 0.036081 -0.018475 0.000000 0.000000 0.000000 0.000000 0.000000 0.000000 0.002422 0.053283 -28.739050 0.415538 5.439297 -0.055316 2.111065 -6.245916 4.212198 0.000000 0.000000 0.000000 0.603473 -0.952882 -29.084140 -0.771455 1.285496 -0.205441 0.322364 -0.887729 1.944275 0.000000 0.000000 0.000000
82.235987 69.731791 341.215682 0.004104 -0.033299 28.596970 0.012335 0.031201 -28.596972 -0.000000 0.000000 0.000000 -0.500653 0.764905 0.147504 0.000000 0.000000 0.000000 -0.000000 0.000000 0.000000 0.497213 1.196535 -0.266179 -1.160334 -2.283975 0.460737 1.509389 -0.433132 -0.645736 0.000000 0.000000 0.000000 0.000000 0.000000 0.000000 -0.000000 0.000000 0.000000 0.643688 -1.724128 0.528271 1.878881 0.067865 0.368366 -4.723869 1.556713 -0.565021 0.000000 0.000000 0.000000 0.000000 0.000000 0.000000 0.012335 0.031201 -28.596972 0.439802 3.192357 -0.164207 1.294514 -3.585076 3.147227 0.000000 0.000000 0.000000 0.413825 -1.107868 -28.895374 -1.228536 2.370239 -0.002115 0.954305 -2.637474 0.951922 0.000000 0.000000 0.000000
